<svg xmlns="http://www.w3.org/2000/svg" xmlns:xlink="http://www.w3.org/1999/xlink" width="473" height="80" viewBox="0 0 473 80"><defs><clipPath id="b"><rect width="473" height="80"/></clipPath></defs><g id="a" clip-path="url(#b)"><g transform="translate(5 -8)"><text transform="translate(103 30)" fill="#2e2e2e" font-size="33" font-family="Helvetica-Bold, Helvetica" font-weight="700" letter-spacing="0.011em"><tspan x="0" y="25">Composer</tspan></text><text transform="translate(280 33)" fill="#2e2e2e" font-size="33" font-family="Helvetica-Light, Helvetica" font-weight="300" letter-spacing="0.011em"><tspan x="0" y="25">EDD Plugin</tspan></text></g><g transform="translate(3)"><g transform="translate(12)"><circle cx="40" cy="40" r="40" fill="#2794da"/></g><g transform="translate(32 10.796)"><path d="M25.808,19.439a3.055,3.055,0,0,0,.849.012c3.779-.566,5.939-4.711,6.208-8.233A6.592,6.592,0,0,0,32.9,3.626S31.434.061,24.68,1.238c0,0-5-.121-5.335,4.911a29.239,29.239,0,0,0,.388,4.135c-.061.376-.085.655-.1.764C19.672,11.35,20.545,18.626,25.808,19.439Zm-3.8-13.484a2.993,2.993,0,0,1,1.6-.643c1.308,0,.863,1.382,3.6,1.382a11.356,11.356,0,0,0,3.529-.679.847.847,0,0,1,.715.327c.5.521,1.031,1.88.764,5.3-.012.061-.861,6.487-5.663,7.2a1.646,1.646,0,0,1-.643-.012c-4.814-.74-5.675-7.785-5.675-7.785C20.376,9.883,20.946,6.706,22.013,5.955Z" transform="translate(-5.726 -1)" fill="#f4f7fa"/><path d="M11.345,23.315V34.531A16.015,16.015,0,0,1,18.8,36.908l9.107,4.256c12.26-6.166,14.16-6.622,16.552-6.633V23.315a1.082,1.082,0,0,0-1.079-1.079H12.424A1.082,1.082,0,0,0,11.345,23.315ZM27.909,26.54a4.244,4.244,0,1,1-4.244,4.244A4.249,4.249,0,0,1,27.909,26.54Z" transform="translate(-7.426 3.515)" fill="#f4f7fa"/><path d="M14.735,22.1H39.35c-1.358-2.292-6-4.365-7.688-4.923a7.813,7.813,0,0,1-4.608,1.31,7.84,7.84,0,0,1-4.608-1.31C20.568,18.037,16.02,19.819,14.735,22.1Z" transform="translate(-6.706 2.439)" fill="#f4f7fa"/><path d="M15.5,44.144a1.991,1.991,0,0,1-1.055.558,7.363,7.363,0,0,0-4.086,2.219,2.951,2.951,0,0,0-.825,2.049c.012,1.067.631,1.3,1.152,1.31a1.293,1.293,0,0,0,.946-.4c1.346-1.261,6.051-2.9,8.767-3.759,0,.012.012.012.012.024a.953.953,0,0,0,.812.412,40.849,40.849,0,0,0,4.365-.534,68.711,68.711,0,0,1-8.573-3.068A5.841,5.841,0,0,0,15.5,44.144Z" transform="translate(-7.811 7.92)" fill="#f4f7fa"/><path d="M32.381,36.567l-6.2,2.9c7.058,3.519,8.017,3.225,8.573,4.729a69.832,69.832,0,0,0,8.367-4.123c2.074-1.37,2.28-2.934,2-4.135a3.309,3.309,0,0,0-2.874-2.51C38.666,32.972,35.181,35.267,32.381,36.567Z" transform="translate(-4.272 5.881)" fill="#f4f7fa"/><path d="M11.086,33.425a3.352,3.352,0,0,0-2.9,2.631c-.243,1.176.024,2.692,2.025,4.014,0,0,12.817,7.736,25.44,8.524a.939.939,0,0,0,.812-.412c0-.012.012-.012.012-.024,2.7.861,7.421,2.5,8.767,3.759a1.193,1.193,0,0,0,2.1-.909,2.994,2.994,0,0,0-.812-2.049,7.452,7.452,0,0,0-4.1-2.219,1.914,1.914,0,0,1-1.043-.558c-.8-.825-2.522-2.3-3.844-1.006a1.12,1.12,0,0,0-.618-1.14L18.907,35.608S14.748,32.964,11.086,33.425Z" transform="translate(-8.113 5.882)" fill="#f4f7fa"/><circle cx="3.031" cy="3.031" r="3.031" transform="translate(17.446 31.272)" fill="#f4f7fa"/></g></g></g></svg>